<?xml version="1.0" encoding="iso-8859-1"?>
<!-- Generator: Adobe Illustrator 19.0.0, SVG Export Plug-In . SVG Version: 6.00 Build 0)  -->
<svg version="1.1" id="Capa_1" xmlns="http://www.w3.org/2000/svg" xmlns:xlink="http://www.w3.org/1999/xlink" x="0px" y="0px"
	 viewBox="0 0 512.06 512.06" style="enable-background:new 0 0 512.06 512.06;" xml:space="preserve">
<path style="fill:#607D8B;" d="M496.03,224.06h-448c-8.837,0-16,7.163-16,16v240c0,17.673,14.327,32,32,32h416
	c17.673,0,32-14.327,32-32v-240C512.03,231.224,504.867,224.06,496.03,224.06z"/>
<path d="M65.598,133.18c-4.913-0.009-9.55-2.274-12.576-6.144c-8.273,3.106-17.497-1.081-20.603-9.354
	c-0.516-1.375-0.841-2.815-0.965-4.278l-4.8-56.96c-0.739-8.788,5.774-16.517,14.56-17.28L487.294,0.06
	c8.777-0.758,16.517,5.722,17.312,14.496l5.76,63.68c0.794,8.801-5.696,16.579-14.497,17.373c-0.01,0.001-0.02,0.002-0.031,0.003
	l-428.8,37.44C66.562,133.129,66.081,133.172,65.598,133.18z M59.87,69.66l2.688,31.808l1.664-0.224l412.8-36.032l-2.88-31.808
	L59.87,69.66z"/>
<path d="M398.686,104.188c-2.016,0.006-4.015-0.374-5.888-1.12c-8.217-3.25-12.244-12.546-8.994-20.763
	c0.001-0.002,0.001-0.003,0.002-0.005l26.304-66.528c3.077-8.284,12.286-12.505,20.569-9.428
	c8.284,3.076,12.505,12.286,9.428,20.569c-0.075,0.203-0.155,0.404-0.238,0.603l-26.304,66.56
	C411.15,100.18,405.251,104.189,398.686,104.188z"/>
<path d="M303.07,112.54c-2.016,0.006-4.015-0.374-5.888-1.12c-8.202-3.251-12.224-12.527-8.992-20.736l26.304-66.56
	c2.851-8.364,11.943-12.833,20.307-9.981s12.833,11.943,9.981,20.307c-0.164,0.481-0.351,0.955-0.56,1.418L317.95,102.46
	C315.524,108.552,309.627,112.547,303.07,112.54z"/>
<path d="M207.422,120.924c-1.984-0.006-3.949-0.386-5.792-1.12c-8.217-3.25-12.244-12.546-8.994-20.763
	c0.001-0.002,0.001-0.003,0.002-0.005l26.304-66.528c3.076-8.284,12.285-12.505,20.569-9.429s12.505,12.285,9.429,20.569
	c-0.075,0.203-0.155,0.404-0.238,0.604l-26.4,66.528C219.897,116.897,213.995,120.92,207.422,120.924z"/>
<path d="M111.774,129.276c-8.837,0.002-16.001-7.161-16.003-15.997c0-2.017,0.381-4.016,1.123-5.891l26.336-66.56
	c3.493-8.117,12.904-11.866,21.021-8.373c7.795,3.354,11.615,12.21,8.707,20.181l-26.304,66.528
	C124.238,125.268,118.339,129.277,111.774,129.276z"/>
<path d="M496.03,256.06h-448c-8.837,0-16-7.163-16-16v-64c0-8.837,7.163-16,16-16h448c8.837,0,16,7.163,16,16v64
	C512.03,248.897,504.867,256.06,496.03,256.06z M64.03,224.06h416v-32h-416V224.06z"/>
<path d="M144.03,256.06c-6.055,0-11.591-3.419-14.304-8.832l-32-64c-3.898-7.931-0.628-17.519,7.302-21.417
	c7.844-3.855,17.33-0.702,21.306,7.081l32,64c3.959,7.9,0.764,17.514-7.137,21.473C148.973,255.48,146.519,256.06,144.03,256.06z"/>
<path d="M240.03,256.06c-6.055,0-11.591-3.419-14.304-8.832l-32-64c-3.898-7.931-0.628-17.519,7.302-21.417
	c7.844-3.855,17.33-0.702,21.306,7.081l32,64c3.959,7.9,0.764,17.514-7.137,21.473C244.973,255.48,242.519,256.06,240.03,256.06z"/>
<path d="M336.03,256.06c-6.055,0-11.591-3.419-14.304-8.832l-32-64c-4.02-7.869-0.899-17.507,6.97-21.527s17.507-0.899,21.527,6.97
	c0.038,0.074,0.075,0.147,0.111,0.221l32,64c3.959,7.9,0.764,17.514-7.137,21.473C340.973,255.48,338.519,256.06,336.03,256.06z"/>
<path d="M432.03,256.06c-6.055,0-11.591-3.419-14.304-8.832l-32-64c-3.898-7.931-0.628-17.519,7.302-21.417
	c7.844-3.855,17.33-0.702,21.306,7.081l32,64c3.959,7.9,0.764,17.514-7.137,21.473C436.973,255.48,434.519,256.06,432.03,256.06z"/>
<path d="M48.03,192.06c-26.51,0-48-21.49-48-48s21.49-48,48-48s48,21.49,48,48S74.54,192.06,48.03,192.06z M48.03,128.06
	c-8.837,0-16,7.163-16,16s7.163,16,16,16s16-7.163,16-16S56.867,128.06,48.03,128.06z"/>
<path d="M480.03,512.06h-416c-17.673,0-32-14.327-32-32v-240c0-8.837,7.163-16,16-16h448c8.837,0,16,7.163,16,16v240
	C512.03,497.733,497.703,512.06,480.03,512.06z M64.03,256.06v224h416v-224H64.03z"/>
<g>
</g>
<g>
</g>
<g>
</g>
<g>
</g>
<g>
</g>
<g>
</g>
<g>
</g>
<g>
</g>
<g>
</g>
<g>
</g>
<g>
</g>
<g>
</g>
<g>
</g>
<g>
</g>
<g>
</g>
</svg>
